<?xml version="1.0" encoding="utf-8"?><svg version="1.1" id="Layer_1" xmlns="http://www.w3.org/2000/svg" xmlns:xlink="http://www.w3.org/1999/xlink" x="0px" y="0px" viewBox="0 0 77.71 122.88" style="enable-background:new 0 0 77.71 122.88" xml:space="preserve"><style type="text/css">.st0{fill-rule:evenodd;clip-rule:evenodd;}</style><g><path class="st0" d="M61.64,49.41H16.07H4.22l10.58,51.37h46.78L73.5,49.41H61.64L61.64,49.41z M4.3,28.33h29.82l5.53-21.59 c0.94-3.48,3.67-5.43,8.5-6.74c4.09,0,8.18,0,12.27,0c1.87,0.37,2.95,1.67,3.24,3.91c0,1.26,0,2.52,0,3.78 c-0.62,2.06-1.86,2.9-3.78,3.24H49.64l-4.45,17.41h28.22c2.37,0,4.3,1.94,4.3,4.3v4.89c0,2.37-1.94,4.3-4.3,4.3H4.3 c-2.37,0-4.3-1.94-4.3-4.3v-4.89C0,30.27,1.94,28.33,4.3,28.33L4.3,28.33z M15.57,108.94l0.78,8.15c1.02,3.43,3.42,5.06,6.87,5.8 h2.96h23.99h2.96c3.46-0.74,5.86-2.37,6.87-5.8l0.78-8.15H15.57L15.57,108.94z"/></g></svg>